# xmcd CD database file
#
# Track frame offsets:
#	150
#	40877
#	88335
#	113197
#	141892
#	173205
#	198902
#	242932
#	250135
#	286290
#
# Disc length: 4269 seconds
#
# Revision: 0
# Processed by: cddbd v1.5.1PL0 Copyright (c) Steve Scherf et al.
# Submitted via: CDex 1.50beta8
#
DISCID=9110ab0a
DTITLE=Nicolas Simion Group - Balkan Jazz
DYEAR=2001
DGENRE=Jazz
TTITLE0=Fighting Song
TTITLE1=Slovakian Peasant Song
TTITLE2=One for Kisser
TTITLE3=That's the Evening of Santa Claus
TTITLE4=Balkanale
TTITLE5=Cheremies Folk Song
TTITLE6=Antiphon
TTITLE7=Looking Back
TTITLE8=May I Dance
TTITLE9=Gankino Horo
EXTD=YEAR: 2001
EXTT0=
EXTT1=
EXTT2=
EXTT3=
EXTT4=
EXTT5=
EXTT6=
EXTT7=
EXTT8=
EXTT9=
PLAYORDER=
